<svg width="1440" height="2209" viewBox="0 0 1440 2209" fill="none" xmlns="http://www.w3.org/2000/svg">
<g filter="url(#filter0_d)">
<path d="M-127.85 187.84C-179.505 183.439 -190.779 209.68 -189.959 223.351L-189.959 2464H1780C1780 2270.5 1796.65 192.642 1775 177.838C1747.94 159.332 1621.04 167.835 1565.08 149.329C1509.12 130.824 1473.45 196.343 1429.79 177.838C1386.13 159.332 1365.22 159.332 1348.62 159.332C1332.02 159.332 1251.46 196.343 1224.4 177.838C1197.35 159.332 1161.68 144.328 1108.18 159.332C1054.68 174.337 972.892 208.346 923.082 187.84C873.272 167.334 857.353 197.722 808.703 208.346C740 223.351 756.011 216.349 718.5 187.84C680.989 159.332 663 167 651.279 177.838C616.875 209.647 567.647 196.343 536.9 187.84C506.153 179.338 507.383 177.838 451.423 187.84C395.463 197.843 412.067 223.351 387.469 208.346C362.872 193.342 351.803 196.343 318.596 208.346C285.39 220.35 283.545 235.354 264.482 223.351C245.419 211.347 226.97 196.343 217.131 196.343C209.26 196.343 180.645 204.345 167.321 208.346C150.513 198.177 110.747 179.838 86.149 187.84C55.4019 197.843 40.0284 203.345 32.0342 196.343C24.04 189.341 -30.0748 174.337 -40.5288 177.838C-50.9828 181.339 -63.2816 193.342 -127.85 187.84Z" fill="url(#paint0_linear)"/>
</g>
<defs>
<filter id="filter0_d" x="-249" y="0" width="2202.11" height="2544" filterUnits="userSpaceOnUse" color-interpolation-filters="sRGB">
<feFlood flood-opacity="0" result="BackgroundImageFix"/>
<feColorMatrix in="SourceAlpha" type="matrix" values="0 0 0 0 0 0 0 0 0 0 0 0 0 0 0 0 0 0 127 0"/>
<feOffset dx="54" dy="-33"/>
<feGaussianBlur stdDeviation="56.5"/>
<feColorMatrix type="matrix" values="0 0 0 0 0 0 0 0 0 0.440417 0 0 0 0 0.629167 0 0 0 0.07 0"/>
<feBlend mode="normal" in2="BackgroundImageFix" result="effect1_dropShadow"/>
<feBlend mode="normal" in="SourceGraphic" in2="effect1_dropShadow" result="shape"/>
</filter>
<linearGradient id="paint0_linear" x1="743.5" y1="2446.4" x2="743.5" y2="146" gradientUnits="userSpaceOnUse">
<stop offset="0.0668585" stop-color="#005583"/>
<stop offset="0.501203" stop-color="#0199EC"/>
<stop offset="1" stop-color="#62C8FF"/>
</linearGradient>
</defs>
</svg>
